<?xml version="1.0" encoding="utf-8"?>
<!-- Generator: Adobe Illustrator 28.0.0, SVG Export Plug-In . SVG Version: 6.00 Build 0)  -->
<svg version="1.1" id="Layer_2_00000170980823809191432740000018221000523707332016_"
	 xmlns="http://www.w3.org/2000/svg" xmlns:xlink="http://www.w3.org/1999/xlink" x="0px" y="0px" viewBox="0 0 172.9 96.2"
	 style="enable-background:new 0 0 172.9 96.2;" xml:space="preserve">
<style type="text/css">
	.st0{fill:#E2C2E5;}
</style>
<g id="Layer_1-2">
	<g>
		<path class="st0" d="M34.6,82.4c10.5,12.7-12.4,21.2-12.4,4.5V76.6c0-6.2-2.9-9.2-6.1-10.9L9.3,62C2.8,58.2,0,55.1,0,48.4
			s2.8-9.8,9.3-13.6l6.8-3.7c3.2-1.7,6.1-4.7,6.1-10.9V9.9c0-16.7,22.9-8.2,12.4,4.5L16.2,38.6c-2.9,3.7-4.1,6.1-4,9.8
			c-0.1,3.7,1.1,6.1,4,9.8C16.2,58.2,34.6,82.4,34.6,82.4z"/>
		<path class="st0" d="M75.1,32.6c3.8,4.8,3.4,10.1-2.7,14.2l-16.1,11c-7.5,5.1-0.9,17.3,6.8,12.7l42.3-25.2
			c9.6-5.7,16.8-2.3,17.2,5.9l1,21c0.5,10.8-4.4,15.1-11.8,15.1s-13.3-7.7-6.7-17.8L115.8,53c2.1-3.2-0.4-5.5-2.6-5.5
			c-1.9,0-3.4,0.2-7,5L89.8,73.9C82.1,84,77.9,87.3,68.9,87.3c-11.8,0-22.8-12.8-22.8-38.1S61.8,8.3,84.5,8.3
			c19,0,31.6,6.2,34.7,16.8c2.8,9.4-10.9,15.3-17.2,7L90.9,17.5c-3.3-4.3-9.8-6.4-15.8-3.8c-7,3-6.6,10.6-2.9,15.2L75.1,32.6z"/>
		<path class="st0" d="M163.6,34.2c6.5,3.8,9.3,6.9,9.3,13.6s-2.8,9.8-9.3,13.6l-6.8,3.7c-3.2,1.7-6.1,4.7-6.1,10.9v10.3
			c0,16.7-22.9,8.2-12.4-4.5l18.4-24.2c2.9-3.7,4.1-6.1,4-9.8c0.1-3.7-1.1-6.1-4-9.8l-18.4-24.2c-10.5-12.7,12.4-21.2,12.4-4.5v10.3
			c0,6.2,2.9,9.2,6.1,10.9L163.6,34.2z"/>
	</g>
</g>
</svg>
