<?xml version="1.0" encoding="utf-8"?>
<!-- Generator: Adobe Illustrator 28.0.0, SVG Export Plug-In . SVG Version: 6.00 Build 0)  -->
<svg version="1.1" id="Layer_2_00000074440175398711263620000012767961004346136747_"
	 xmlns="http://www.w3.org/2000/svg" xmlns:xlink="http://www.w3.org/1999/xlink" x="0px" y="0px" viewBox="0 0 409.4 95.6"
	 style="enable-background:new 0 0 409.4 95.6;" xml:space="preserve">
<style type="text/css">
	.st0{fill:#E2C2E5;}
</style>
<g id="Layer_1-2">
	<g>
		<path class="st0" d="M34.6,81.8c10.5,12.7-12.4,21.2-12.4,4.5V76c0-6.2-2.9-9.2-6.1-10.9l-6.8-3.7C2.8,57.6,0,54.5,0,47.8
			S2.8,38,9.3,34.2l6.8-3.7c3.2-1.7,6.1-4.7,6.1-10.9V9.3c0-16.7,22.9-8.2,12.4,4.5L16.2,38c-2.9,3.7-4.1,6.1-4,9.8
			c-0.1,3.7,1.1,6.1,4,9.8C16.2,57.6,34.6,81.8,34.6,81.8z"/>
		<path class="st0" d="M75.1,32c3.8,4.8,3.4,10.1-2.7,14.2l-16.1,11c-7.5,5.1-0.9,17.3,6.8,12.7l42.3-25.2
			c9.6-5.7,16.8-2.3,17.2,5.9l1,21c0.5,10.8-4.4,15.1-11.8,15.1s-13.3-7.7-6.7-17.8l10.7-16.5c2.1-3.2-0.4-5.5-2.6-5.5
			c-1.9,0-3.4,0.2-7,5L89.8,73.3c-7.7,10.1-11.9,13.4-20.9,13.4c-11.8,0-22.8-12.8-22.8-38.1S61.8,7.7,84.5,7.7
			c19,0,31.6,6.2,34.7,16.8c2.8,9.4-10.9,15.3-17.2,7L90.9,16.9c-3.3-4.3-9.8-6.4-15.8-3.8c-7,3-6.6,10.6-2.9,15.2L75.1,32z"/>
		<path class="st0" d="M138.3,24.2l11.3-13c2.1-2.4,5-3.5,7.9-3.5c5.1,0,10,3.5,10,9.5c0,5.6-3.4,8.2-8.2,9.9l-11,3.8
			c-1.3,0.4-1.9,1.3-1.9,2.3c0,1.7,1.7,1.7,2.6,1.6l6.8-0.8c10.1-1.2,13.5,7.3,6.9,14.9l-19.1,21.8c-1.6,1.8-2.1,2.6-2.1,3.6
			c0,2,1.7,3.7,3.6,2.9l12-5.2c4.2-1.8,9.1-1.2,9.7,4.6c0.7,6.7-7.3,10.1-15,10.1c-11.4,0-16.7-7.6-14-17.6l8.1-29.6
			c0.2-0.7,0.3-1.3,0.3-1.8c0-2.3-1.8-3.1-5-3.1h-4.3c-2.5,0-3.3-1.4-3.3-3.2C133.6,29.8,135.8,27.1,138.3,24.2z"/>
		<path class="st0" d="M217.3,61.9c5.7-0.1,9.5-1.2,10.1-6.3l4.3-35.4c0.7-5.5-2-9-6.2-8.2s-7.8,8.4-9.3,11.5l-12.1,24.8
			c-3.2,6.6-8.8,7.9-12.5,7.9c-5.9,0-10.7-4.9-10.7-11.1c0-4.3,3-8.2,7.6-11.9l20.1-16c8.7-6.9,12.3-9.5,18.8-9.5
			c6,0,10.1,4.3,11.4,11.1l9.1,48.1c2.1,11.2-1.3,19.8-11.6,19.8c-8.2,0-12.1-5.2-12.1-11.3v-5.2c0-5.5-2.9-6.2-6.4-3.2l-9.8,8.4
			c-4.6,3.9-12,11.3-20.2,11.3c-5.8,0-12.3-3.3-12.3-12.7c0-8,7.2-11.3,16-11.5L217.3,61.9L217.3,61.9z"/>
		<path class="st0" d="M269.9,86.6c-6.6,0-15.1-2.3-14.4-9.9c0.4-4.2,2.1-7.5,9-7.5s13.9,1.9,13.2,9.9
			C277.3,84.6,273.8,86.6,269.9,86.6L269.9,86.6z"/>
		<path class="st0" d="M296.3,86.6c-6.6,0-10.1-5.3-10.1-10.5c0-4.6,2.6-8.4,8.2-9.4c4.5-0.8,6-2.3,4.3-5.8l-3.7-7.5
			c-9.9-20.1-4.7-44.1,21.1-44.2c30.5-0.1,45.1,13.2,45.1,38.9s-8.5,38.5-30.2,38.5H296.3L296.3,86.6z M331,20.3
			c-3.1-7.4-14.2-9.3-17.1,1l-10.3,36.2c-1.9,6.8,1,11.3,9.5,12.9l25,4.8c7.6,1.5,14.2-3.5,10.2-13.2L331,20.3L331,20.3z"/>
		<path class="st0" d="M400.1,34.2c6.5,3.8,9.3,6.9,9.3,13.6s-2.8,9.8-9.3,13.6l-6.8,3.7c-3.2,1.7-6.1,4.7-6.1,10.9v10.3
			c0,16.7-22.9,8.2-12.4-4.5l18.4-24.2c2.9-3.7,4.1-6.1,4-9.8c0.1-3.7-1.1-6.1-4-9.8l-18.4-24.2c-10.5-12.7,12.4-21.2,12.4-4.5v10.3
			c0,6.2,2.9,9.2,6.1,10.9L400.1,34.2z"/>
	</g>
</g>
</svg>
